{
  "accessors": [
    {
      "bufferView": 2,
      "componentType": 5126,
      "count": 2916,
      "max": [
        6.224147796630859,
        15.353254318237305,
        1.0293610095977783
      ],
      "min": [
        -6.752090930938721,
        -0.10385800153017044,
        -0.8385549783706665
      ],
      "type": "VEC3"
    },
    {
      "bufferView": 2,
      "byteOffset": 34992,
      "componentType": 5126,
      "count": 2916,
      "max": [
        0.999880313873291,
        0.9997500777244568,
        0.9999803304672241
      ],
      "min": [
        -0.9981393814086914,
        -0.9980987906455994,
        -0.9999935626983643
      ],
      "type": "VEC3"
    },
    {
      "bufferView": 1,
      "componentType": 5126,
      "count": 2916,
      "max": [
        1.8615488678432806e+34,
        4.952105275017433e+36
      ],
      "min": [
        -6.752090930938721,
        -6.752090930938721
      ],
      "type": "VEC2"
    },
    {
      "bufferView": 0,
      "componentType": 5125,
      "count": 2928,
      "type": "SCALAR"
    },
    {
      "bufferView": 2,
      "byteOffset": 69984,
      "componentType": 5126,
      "count": 2188,
      "max": [
        6.97079610824585,
        15.08616828918457,
        0.7382959723472595
      ],
      "min": [
        -6.059074878692627,
        -0.45516300201416016,
        -1.0297449827194214
      ],
      "type": "VEC3"
    },
    {
      "bufferView": 2,
      "byteOffset": 96240,
      "componentType": 5126,
      "count": 2188,
      "max": [
        0.9971689581871033,
        0.9991218447685242,
        0.999923586845398
      ],
      "min": [
        -0.9999160766601563,
        -0.9970318078994751,
        -0.9999959468841553
      ],
      "type": "VEC3"
    },
    {
      "bufferView": 1,
      "byteOffset": 23328,
      "componentType": 5126,
      "count": 2188,
      "max": [
        1.8615488678432806e+34,
        4.952105275017433e+36
      ],
      "min": [
        -4.872262954711914,
        -4.872262954711914
      ],
      "type": "VEC2"
    },
    {
      "bufferView": 0,
      "byteOffset": 11712,
      "componentType": 5125,
      "count": 2208,
      "type": "SCALAR"
    },
    {
      "bufferView": 2,
      "byteOffset": 122496,
      "componentType": 5126,
      "count": 1335,
      "max": [
        3.9918179512023926,
        13.159150123596191,
        0.11314599961042404
      ],
      "min": [
        -4.0621562004089355,
        1.1120719909667969,
        -0.27105098962783813
      ],
      "type": "VEC3"
    },
    {
      "bufferView": 2,
      "byteOffset": 138516,
      "componentType": 5126,
      "count": 1335,
      "max": [
        0.9884699583053589,
        0.9124401211738586,
        0.9999984502792358
      ],
      "min": [
        -0.9992491602897644,
        -0.8977239727973938,
        -0.9999417066574097
      ],
      "type": "VEC3"
    },
    {
      "bufferView": 1,
      "byteOffset": 40832,
      "componentType": 5126,
      "count": 1335,
      "max": [
        7.2064696748654245e+31,
        7.5550769749204825e+31
      ],
      "min": [
        -2.3768976120663865e-08,
        0.0
      ],
      "type": "VEC2"
    },
    {
      "bufferView": 0,
      "byteOffset": 20544,
      "componentType": 5125,
      "count": 1344,
      "type": "SCALAR"
    }
  ],
  "asset": {
    "extras": {
      "author": "IronEqual (https://sketchfab.com/ie-niels)",
      "license": "CC-BY-4.0 (http://creativecommons.org/licenses/by/4.0/)",
      "source": "https://sketchfab.com/3d-models/portal-from-poly-by-google-285a6276d2ed48b4b028c150d45c4b9e",
      "title": "Portal from Poly by Google"
    },
    "generator": "Sketchfab-12.65.0",
    "version": "2.0"
  },
  "bufferViews": [
    {
      "buffer": 0,
      "byteLength": 25920,
      "name": "floatBufferViews",
      "target": 34963
    },
    {
      "buffer": 0,
      "byteLength": 51512,
      "byteOffset": 25920,
      "byteStride": 8,
      "name": "floatBufferViews",
      "target": 34962
    },
    {
      "buffer": 0,
      "byteLength": 154536,
      "byteOffset": 77432,
      "byteStride": 12,
      "name": "floatBufferViews",
      "target": 34962
    }
  ],
  "buffers": [
    {
      "byteLength": 231968,
      "uri": "scene.bin"
    }
  ],
  "materials": [
    {
      "doubleSided": true,
      "name": "039BE5",
      "pbrMetallicRoughness": {
        "baseColorFactor": [
          0.011765,
          0.607843,
          0.898039,
          1.0
        ],
        "metallicFactor": 0.0,
        "roughnessFactor": 0.744802
      }
    },
    {
      "doubleSided": true,
      "name": "00BCD4",
      "pbrMetallicRoughness": {
        "baseColorFactor": [
          0.0,
          0.737255,
          0.831373,
          1.0
        ],
        "metallicFactor": 0.0,
        "roughnessFactor": 0.744802
      }
    },
    {
      "doubleSided": true,
      "name": "FFFFFF",
      "pbrMetallicRoughness": {
        "metallicFactor": 0.0,
        "roughnessFactor": 0.744802
      }
    }
  ],
  "meshes": [
    {
      "name": "Object_0",
      "primitives": [
        {
          "attributes": {
            "NORMAL": 1,
            "POSITION": 0,
            "TEXCOORD_0": 2
          },
          "indices": 3,
          "material": 0,
          "mode": 4
        }
      ]
    },
    {
      "name": "Object_1",
      "primitives": [
        {
          "attributes": {
            "NORMAL": 5,
            "POSITION": 4,
            "TEXCOORD_0": 6
          },
          "indices": 7,
          "material": 1,
          "mode": 4
        }
      ]
    },
    {
      "name": "Object_2",
      "primitives": [
        {
          "attributes": {
            "NORMAL": 9,
            "POSITION": 8,
            "TEXCOORD_0": 10
          },
          "indices": 11,
          "material": 2,
          "mode": 4
        }
      ]
    }
  ],
  "nodes": [
    {
      "children": [
        1
      ],
      "matrix": [
        1.0,
        0.0,
        0.0,
        0.0,
        0.0,
        2.220446049250313e-16,
        -1.0,
        0.0,
        0.0,
        1.0,
        2.220446049250313e-16,
        0.0,
        0.0,
        0.0,
        0.0,
        1.0
      ],
      "name": "Sketchfab_model"
    },
    {
      "children": [
        2
      ],
      "name": "root"
    },
    {
      "children": [
        3
      ],
      "matrix": [
        1.0,
        0.0,
        0.0,
        0.0,
        0.0,
        2.220446049250313e-16,
        1.0,
        0.0,
        0.0,
        -1.0,
        2.220446049250313e-16,
        0.0,
        0.0,
        0.0,
        0.0,
        1.0
      ],
      "name": "GLTF_SceneRootNode"
    },
    {
      "children": [
        4,
        5,
        6
      ],
      "name": "node-0_0"
    },
    {
      "mesh": 0,
      "name": "Object_4"
    },
    {
      "mesh": 1,
      "name": "Object_5"
    },
    {
      "mesh": 2,
      "name": "Object_6"
    }
  ],
  "scene": 0,
  "scenes": [
    {
      "name": "Sketchfab_Scene",
      "nodes": [
        0
      ]
    }
  ]
}
