{
  "accessors": [
    {
      "bufferView": 2,
      "componentType": 5126,
      "count": 278,
      "max": [
        3.7176876068115234,
        0.06607013940811157,
        3.7176871299743652
      ],
      "min": [
        -3.7176878452301025,
        -0.1759730577468872,
        -3.7176871299743652
      ],
      "type": "VEC3"
    },
    {
      "bufferView": 2,
      "byteOffset": 3336,
      "componentType": 5126,
      "count": 278,
      "max": [
        1.0,
        1.0,
        1.0
      ],
      "min": [
        -1.0,
        -1.0,
        -1.0
      ],
      "type": "VEC3"
    },
    {
      "bufferView": 3,
      "componentType": 5126,
      "count": 278,
      "max": [
        1.0,
        1.0,
        1.0,
        1.0
      ],
      "min": [
        -0.011428315192461014,
        -1.0,
        -0.023396702483296394,
        1.0
      ],
      "type": "VEC4"
    },
    {
      "bufferView": 1,
      "componentType": 5126,
      "count": 278,
      "max": [
        0.9846082925796509,
        0.8300976753234863
      ],
      "min": [
        0.0901416763663292,
        0.07199826836585999
      ],
      "type": "VEC2"
    },
    {
      "bufferView": 0,
      "componentType": 5125,
      "count": 1080,
      "type": "SCALAR"
    },
    {
      "bufferView": 2,
      "byteOffset": 6672,
      "componentType": 5126,
      "count": 598,
      "max": [
        3.2261765003204346,
        4.78147554397583,
        0.1050422191619873
      ],
      "min": [
        -3.2224981784820557,
        0.10101676732301712,
        -0.10504227876663208
      ],
      "type": "VEC3"
    },
    {
      "bufferView": 2,
      "byteOffset": 13848,
      "componentType": 5126,
      "count": 598,
      "max": [
        0.9612884521484375,
        0.9949723482131958,
        1.0
      ],
      "min": [
        -0.9633193016052246,
        -0.9965965151786804,
        -1.0
      ],
      "type": "VEC3"
    },
    {
      "bufferView": 3,
      "byteOffset": 4448,
      "componentType": 5126,
      "count": 598,
      "max": [
        1.0,
        0.8072362542152405,
        1.0,
        1.0
      ],
      "min": [
        -0.8177528977394104,
        -0.8083677887916565,
        -1.0,
        1.0
      ],
      "type": "VEC4"
    },
    {
      "bufferView": 1,
      "byteOffset": 2224,
      "componentType": 5126,
      "count": 598,
      "max": [
        0.976260244846344,
        0.969724178314209
      ],
      "min": [
        0.014286935329437256,
        0.0719982385635376
      ],
      "type": "VEC2"
    },
    {
      "bufferView": 0,
      "byteOffset": 4320,
      "componentType": 5125,
      "count": 1584,
      "type": "SCALAR"
    },
    {
      "bufferView": 2,
      "byteOffset": 21024,
      "componentType": 5126,
      "count": 360,
      "max": [
        3.167227029800415,
        0.12468695640563965,
        3.2826504707336426
      ],
      "min": [
        -3.1621603965759277,
        -0.07109403610229492,
        -0.018949059769511223
      ],
      "type": "VEC3"
    },
    {
      "bufferView": 2,
      "byteOffset": 25344,
      "componentType": 5126,
      "count": 360,
      "max": [
        0.9999130368232727,
        0.9995833039283752,
        0.9963328242301941
      ],
      "min": [
        -0.9999987483024597,
        -0.9995049834251404,
        -0.9999841451644897
      ],
      "type": "VEC3"
    },
    {
      "bufferView": 3,
      "byteOffset": 14016,
      "componentType": 5126,
      "count": 360,
      "max": [
        0.9977067112922668,
        0.9998385906219482,
        0.9807392954826355,
        1.0
      ],
      "min": [
        -0.999552309513092,
        -0.9980120062828064,
        -0.9998082518577576,
        1.0
      ],
      "type": "VEC4"
    },
    {
      "bufferView": 1,
      "byteOffset": 7008,
      "componentType": 5126,
      "count": 360,
      "max": [
        0.9401469230651855,
        0.9242929220199585
      ],
      "min": [
        0.0901416540145874,
        0.07199826836585999
      ],
      "type": "VEC2"
    },
    {
      "bufferView": 0,
      "byteOffset": 10656,
      "componentType": 5125,
      "count": 1320,
      "type": "SCALAR"
    },
    {
      "bufferView": 2,
      "byteOffset": 29664,
      "componentType": 5126,
      "count": 340,
      "max": [
        0.01390928030014038,
        0.12398076057434082,
        1.9914190769195557
      ],
      "min": [
        -2.1582858562469482,
        -0.07031434774398804,
        -1.9881930351257324
      ],
      "type": "VEC3"
    },
    {
      "bufferView": 2,
      "byteOffset": 33744,
      "componentType": 5126,
      "count": 340,
      "max": [
        0.9997527003288269,
        0.9989104866981506,
        0.9996436834335327
      ],
      "min": [
        -0.9965507984161377,
        -0.9985513091087341,
        -0.9998931884765625
      ],
      "type": "VEC3"
    },
    {
      "bufferView": 3,
      "byteOffset": 19776,
      "componentType": 5126,
      "count": 340,
      "max": [
        0.999677836894989,
        0.9999560713768005,
        0.9998964071273804,
        1.0
      ],
      "min": [
        -0.9667938351631165,
        -0.9994722008705139,
        -0.9997765421867371,
        1.0
      ],
      "type": "VEC4"
    },
    {
      "bufferView": 1,
      "byteOffset": 9888,
      "componentType": 5126,
      "count": 340,
      "max": [
        0.8285939693450928,
        0.9341753721237183
      ],
      "min": [
        0.0901416540145874,
        0.0719982385635376
      ],
      "type": "VEC2"
    },
    {
      "bufferView": 0,
      "byteOffset": 15936,
      "componentType": 5125,
      "count": 1320,
      "type": "SCALAR"
    },
    {
      "bufferView": 2,
      "byteOffset": 37824,
      "componentType": 5126,
      "count": 196,
      "max": [
        4.0666117668151855,
        0.0632067322731018,
        3.3423304557800293
      ],
      "min": [
        -4.0666117668151855,
        -0.2086663842201233,
        -0.1508219689130783
      ],
      "type": "VEC3"
    },
    {
      "bufferView": 2,
      "byteOffset": 40176,
      "componentType": 5126,
      "count": 196,
      "max": [
        0.9551945328712463,
        1.0,
        0.9809433817863464
      ],
      "min": [
        -0.9554586410522461,
        -1.0,
        -0.9742428064346313
      ],
      "type": "VEC3"
    },
    {
      "bufferView": 3,
      "byteOffset": 25216,
      "componentType": 5126,
      "count": 196,
      "max": [
        1.0,
        1.0,
        0.21519894897937775,
        1.0
      ],
      "min": [
        -0.8041027784347534,
        -1.0,
        -0.21513479948043823,
        1.0
      ],
      "type": "VEC4"
    },
    {
      "bufferView": 1,
      "byteOffset": 12608,
      "componentType": 5126,
      "count": 196,
      "max": [
        0.895260751247406,
        0.8494746685028076
      ],
      "min": [
        0.09014168381690979,
        0.07199826836585999
      ],
      "type": "VEC2"
    },
    {
      "bufferView": 0,
      "byteOffset": 21216,
      "componentType": 5125,
      "count": 648,
      "type": "SCALAR"
    },
    {
      "bufferView": 2,
      "byteOffset": 42528,
      "componentType": 5126,
      "count": 184,
      "max": [
        1.8829820156097412,
        0.0632067322731018,
        1.770776391029358
      ],
      "min": [
        0.4388445019721985,
        -0.12411022186279297,
        -1.769148349761963
      ],
      "type": "VEC3"
    },
    {
      "bufferView": 2,
      "byteOffset": 44736,
      "componentType": 5126,
      "count": 184,
      "max": [
        0.990100085735321,
        0.9976212382316589,
        0.9252780079841614
      ],
      "min": [
        -0.990927517414093,
        -0.9976211786270142,
        -0.9337136149406433
      ],
      "type": "VEC3"
    },
    {
      "bufferView": 3,
      "byteOffset": 28352,
      "componentType": 5126,
      "count": 184,
      "max": [
        0.9979177713394165,
        0.9994179010391235,
        0.9700101017951965,
        1.0
      ],
      "min": [
        -0.1732453554868698,
        -0.9990312457084656,
        -0.772703230381012,
        1.0
      ],
      "type": "VEC4"
    },
    {
      "bufferView": 1,
      "byteOffset": 14176,
      "componentType": 5126,
      "count": 184,
      "max": [
        0.8123877048492432,
        0.5250152349472046
      ],
      "min": [
        0.42388105392456055,
        0.07199826836585999
      ],
      "type": "VEC2"
    },
    {
      "bufferView": 0,
      "byteOffset": 23808,
      "componentType": 5125,
      "count": 804,
      "type": "SCALAR"
    }
  ],
  "asset": {
    "extras": {
      "author": "Brennan (https://sketchfab.com/Brennanrw)",
      "license": "CC-BY-NC-4.0 (http://creativecommons.org/licenses/by-nc/4.0/)",
      "source": "https://sketchfab.com/3d-models/runic-portal-simple-3be104094950433cbfd1bbc1fed0f187",
      "title": "Runic Portal Simple"
    },
    "generator": "Sketchfab-12.67.0",
    "version": "2.0"
  },
  "bufferViews": [
    {
      "buffer": 0,
      "byteLength": 27024,
      "name": "floatBufferViews",
      "target": 34963
    },
    {
      "buffer": 0,
      "byteLength": 15648,
      "byteOffset": 27024,
      "byteStride": 8,
      "name": "floatBufferViews",
      "target": 34962
    },
    {
      "buffer": 0,
      "byteLength": 46944,
      "byteOffset": 42672,
      "byteStride": 12,
      "name": "floatBufferViews",
      "target": 34962
    },
    {
      "buffer": 0,
      "byteLength": 31296,
      "byteOffset": 89616,
      "byteStride": 16,
      "name": "floatBufferViews",
      "target": 34962
    }
  ],
  "buffers": [
    {
      "byteLength": 120912,
      "uri": "scene.bin"
    }
  ],
  "images": [
    {
      "uri": "textures/lambert1_baseColor.jpeg"
    },
    {
      "uri": "textures/lambert1_metallicRoughness.png"
    },
    {
      "uri": "textures/lambert1_emissive.jpeg"
    },
    {
      "uri": "textures/lambert1_normal.png"
    }
  ],
  "materials": [
    {
      "emissiveFactor": [
        1.0,
        1.0,
        1.0
      ],
      "emissiveTexture": {
        "index": 2
      },
      "name": "lambert1",
      "normalTexture": {
        "index": 3
      },
      "occlusionTexture": {
        "index": 1
      },
      "pbrMetallicRoughness": {
        "baseColorTexture": {
          "index": 0
        },
        "metallicRoughnessTexture": {
          "index": 1
        }
      }
    }
  ],
  "meshes": [
    {
      "name": "Portal_runes_01_low_lambert1_0",
      "primitives": [
        {
          "attributes": {
            "NORMAL": 1,
            "POSITION": 0,
            "TANGENT": 2,
            "TEXCOORD_0": 3
          },
          "indices": 4,
          "material": 0,
          "mode": 4
        }
      ]
    },
    {
      "name": "Portal_runes_02_low_lambert1_0",
      "primitives": [
        {
          "attributes": {
            "NORMAL": 6,
            "POSITION": 5,
            "TANGENT": 7,
            "TEXCOORD_0": 8
          },
          "indices": 9,
          "material": 0,
          "mode": 4
        }
      ]
    },
    {
      "name": "Portal_runes_03_low_lambert1_0",
      "primitives": [
        {
          "attributes": {
            "NORMAL": 11,
            "POSITION": 10,
            "TANGENT": 12,
            "TEXCOORD_0": 13
          },
          "indices": 14,
          "material": 0,
          "mode": 4
        }
      ]
    },
    {
      "name": "Portal_runes_04_low_lambert1_0",
      "primitives": [
        {
          "attributes": {
            "NORMAL": 16,
            "POSITION": 15,
            "TANGENT": 17,
            "TEXCOORD_0": 18
          },
          "indices": 19,
          "material": 0,
          "mode": 4
        }
      ]
    },
    {
      "name": "Portal_runes_05_low_lambert1_0",
      "primitives": [
        {
          "attributes": {
            "NORMAL": 21,
            "POSITION": 20,
            "TANGENT": 22,
            "TEXCOORD_0": 23
          },
          "indices": 24,
          "material": 0,
          "mode": 4
        }
      ]
    },
    {
      "name": "Portal_runes_06_low_lambert1_0",
      "primitives": [
        {
          "attributes": {
            "NORMAL": 26,
            "POSITION": 25,
            "TANGENT": 27,
            "TEXCOORD_0": 28
          },
          "indices": 29,
          "material": 0,
          "mode": 4
        }
      ]
    }
  ],
  "nodes": [
    {
      "children": [
        1
      ],
      "matrix": [
        1.3446754217147827,
        0.0,
        0.0,
        0.0,
        0.0,
        2.985779227670588e-16,
        -1.3446754217147827,
        0.0,
        0.0,
        1.3446754217147827,
        2.985779227670588e-16,
        0.0,
        0.0,
        0.0,
        0.0,
        1.0
      ],
      "name": "Sketchfab_model"
    },
    {
      "children": [
        2
      ],
      "matrix": [
        1.0,
        0.0,
        0.0,
        0.0,
        0.0,
        0.0,
        1.0,
        0.0,
        0.0,
        -1.0,
        0.0,
        0.0,
        0.0,
        0.0,
        0.0,
        1.0
      ],
      "name": "portal_attempt_03_low.fbx"
    },
    {
      "children": [
        3
      ],
      "name": "RootNode"
    },
    {
      "children": [
        4,
        6,
        8,
        10,
        12,
        14
      ],
      "name": "Portal_runes_low"
    },
    {
      "children": [
        5
      ],
      "name": "Portal_runes_01_low"
    },
    {
      "mesh": 0,
      "name": "Portal_runes_01_low_lambert1_0"
    },
    {
      "children": [
        7
      ],
      "name": "Portal_runes_02_low"
    },
    {
      "mesh": 1,
      "name": "Portal_runes_02_low_lambert1_0"
    },
    {
      "children": [
        9
      ],
      "name": "Portal_runes_03_low"
    },
    {
      "mesh": 2,
      "name": "Portal_runes_03_low_lambert1_0"
    },
    {
      "children": [
        11
      ],
      "name": "Portal_runes_04_low"
    },
    {
      "mesh": 3,
      "name": "Portal_runes_04_low_lambert1_0"
    },
    {
      "children": [
        13
      ],
      "name": "Portal_runes_05_low"
    },
    {
      "mesh": 4,
      "name": "Portal_runes_05_low_lambert1_0"
    },
    {
      "children": [
        15
      ],
      "name": "Portal_runes_06_low"
    },
    {
      "mesh": 5,
      "name": "Portal_runes_06_low_lambert1_0"
    }
  ],
  "samplers": [
    {
      "magFilter": 9729,
      "minFilter": 9987,
      "wrapS": 10497,
      "wrapT": 10497
    }
  ],
  "scene": 0,
  "scenes": [
    {
      "name": "Sketchfab_Scene",
      "nodes": [
        0
      ]
    }
  ],
  "textures": [
    {
      "sampler": 0,
      "source": 0
    },
    {
      "sampler": 0,
      "source": 1
    },
    {
      "sampler": 0,
      "source": 2
    },
    {
      "sampler": 0,
      "source": 3
    }
  ]
}
